<?xml version="1.0" encoding="UTF-8"?>
<!DOCTYPE svg PUBLIC "-//W3C//DTD SVG 1.1//EN" "http://www.w3.org/Graphics/SVG/1.1/DTD/svg11.dtd">
<!-- Creator: CorelDRAW -->
<svg xmlns="http://www.w3.org/2000/svg" xml:space="preserve" width="7.11111in" height="7.11111in" version="1.1" style="shape-rendering:geometricPrecision; text-rendering:geometricPrecision; image-rendering:optimizeQuality; fill-rule:evenodd; clip-rule:evenodd"
viewBox="0 0 7111 7111"
 xmlns:xlink="http://www.w3.org/1999/xlink">
 <defs>
  <style type="text/css">
   <![CDATA[
    .fil0 {fill:black}
   ]]>
  </style>
 </defs>
 <g id="Layer_x0020_1">
  <metadata id="CorelCorpID_0Corel-Layer"/>
  <path class="fil0" d="M124 1841c1,-5 2,-11 3,-16 70,-392 209,-740 415,-1021 344,-467 848,-735 1500,-797 418,-39 774,77 1020,398 191,250 286,593 323,961 2,8 2,15 3,23 90,966 -210,2093 -228,2158 -1,4 -2,8 -3,12 -125,337 -44,1209 -2,1519 112,741 16,1295 -285,1645 -301,350 -721,388 -888,388 0,0 0,0 0,0 -47,0 -79,-3 -93,-4 -590,-25 -1020,-435 -1244,-1189 -162,-543 -160,-1077 -159,-1100 30,-696 -297,-1424 -300,-1431 -4,-9 -7,-18 -9,-27 -116,-542 -132,-1060 -53,-1519zm1792 4471c-76,-10 -145,43 -155,119 -10,76 44,146 119,155 3,1 929,139 744,-1356 -9,-76 -78,-130 -154,-121 -77,10 -131,79 -121,155 140,1136 -431,1048 -433,1048zm3315 274c76,-9 129,-79 119,-155 -10,-76 -79,-129 -155,-119 -2,0 -573,88 -432,-1048 9,-76 -45,-145 -121,-155 -77,-9 -146,45 -155,121 -185,1495 741,1357 744,1356zm-4781 -4974c520,-231 1147,-370 1870,-415 282,-17 542,-8 777,28 -45,-278 -128,-500 -248,-657 -189,-246 -458,-324 -782,-293 -857,80 -1397,561 -1617,1337zm2678 -109c-234,-43 -499,-56 -792,-38 -777,48 -1435,209 -1957,479 -17,110 -28,225 -33,342 540,-260 1202,-415 1974,-463 297,-18 570,-7 815,34 3,-125 0,-243 -7,-354zm-1213 5337c0,0 25,3 67,3 130,0 456,-29 685,-295 248,-288 323,-770 222,-1431 0,-1 0,-1 0,-2 -6,-48 -156,-1171 14,-1643 15,-57 147,-568 205,-1165 6,-61 11,-121 15,-179 -232,-42 -496,-55 -787,-37 -794,49 -1463,216 -1990,496 10,226 39,462 90,703 49,111 349,824 318,1537 0,74 16,1969 1150,2012 4,0 8,0 11,1zm3214 271c-166,0 -587,-38 -888,-388 -301,-350 -397,-904 -285,-1645 42,-310 123,-1183 -2,-1519 -1,-4 -2,-8 -3,-12 -18,-65 -318,-1192 -227,-2158 0,-8 1,-15 2,-23 37,-368 132,-711 323,-961 246,-321 602,-437 1020,-398 652,62 1156,330 1500,797 206,281 345,629 415,1021 1,5 2,11 3,16 79,459 63,977 -53,1519 -2,9 -5,18 -9,27 -3,7 -330,735 -299,1431 1,23 2,557 -160,1100 -224,754 -654,1164 -1244,1189 -14,1 -46,4 -93,4zm-921 -3639c171,473 20,1597 14,1645 -101,661 -26,1143 222,1431 229,266 556,295 685,295 57,0 57,-3 78,-4 1136,-43 1150,-1937 1150,-2012 -31,-713 269,-1426 318,-1537 51,-241 80,-477 90,-703 -527,-280 -1196,-447 -1990,-496 -290,-18 -555,-5 -787,37 43,612 181,1194 220,1344zm2557 -1186c-5,-117 -16,-232 -33,-342 -522,-270 -1180,-431 -1957,-479 -292,-18 -558,-5 -792,38 -7,111 -10,229 -7,354 245,-41 518,-52 815,-34 772,48 1434,203 1974,463zm-104 -674c-220,-776 -760,-1257 -1617,-1337 -324,-31 -593,47 -782,293 -120,157 -203,379 -248,657 235,-36 496,-45 777,-28 723,45 1350,184 1870,415z"/>
 </g>
</svg>
